<?xml version="1.0" encoding="UTF-8"?>
<!--Generator: Apple Native CoreSVG 175.5-->
<!DOCTYPE svg
PUBLIC "-//W3C//DTD SVG 1.1//EN"
       "http://www.w3.org/Graphics/SVG/1.1/DTD/svg11.dtd">
<svg version="1.1" xmlns="http://www.w3.org/2000/svg" xmlns:xlink="http://www.w3.org/1999/xlink" width="26.4746" height="18.2812">
 <g>
  <rect height="18.2812" opacity="0" width="26.4746" x="0" y="0"/>
  <path d="M13.2422 17.4463C15.0488 17.4463 16.7285 17.1143 18.2031 16.5674L15.6445 14.0088C14.9219 14.3799 14.1016 14.585 13.2422 14.585C10.1953 14.585 7.7832 12.1143 7.77344 9.14551C7.77344 8.2666 7.97852 7.43652 8.33984 6.7041L5 3.34473C1.92383 5.26855 0 7.97363 0 9.14551C0 11.1182 5.51758 17.4463 13.2422 17.4463ZM21.7578 14.7803C24.6094 12.8955 26.4746 10.3076 26.4746 9.14551C26.4746 7.16309 21.0547 0.844727 13.2422 0.844727C11.582 0.844727 10.0195 1.12793 8.60352 1.59668L11.1426 4.13574C11.7871 3.8623 12.4902 3.70605 13.2422 3.70605C16.2598 3.70605 18.7012 6.09863 18.7012 9.14551C18.7012 9.8877 18.5352 10.6006 18.2422 11.2256ZM10.127 8.9209C10.127 10.6396 11.543 12.0264 13.252 12.0264C13.3887 12.0264 13.5156 12.0166 13.6523 12.0068L10.1465 8.50098C10.1367 8.6377 10.127 8.78418 10.127 8.9209ZM16.3477 8.94043C16.3477 7.23145 14.9707 5.84473 13.2422 5.84473C13.1152 5.84473 12.9883 5.85449 12.8711 5.86426L16.3281 9.32129C16.3379 9.2041 16.3477 9.06738 16.3477 8.94043ZM20.8398 17.6025C21.1328 17.9053 21.6016 17.9248 21.9043 17.6025C22.2266 17.2803 22.1973 16.8408 21.9043 16.5381L5.57617 0.219727C5.2832-0.0732422 4.80469-0.0732422 4.50195 0.219727C4.21875 0.50293 4.21875 1.00098 4.50195 1.28418Z" fill="#ffffff" fill-opacity="0.85"/>
 </g>
</svg>
