<?xml version="1.0" encoding="UTF-8"?>
<!--Generator: Apple Native CoreSVG 175.5-->
<!DOCTYPE svg
PUBLIC "-//W3C//DTD SVG 1.1//EN"
       "http://www.w3.org/Graphics/SVG/1.1/DTD/svg11.dtd">
<svg version="1.1" xmlns="http://www.w3.org/2000/svg" xmlns:xlink="http://www.w3.org/1999/xlink" width="11.6553" height="11.0815">
 <g>
  <rect height="11.0815" opacity="0" width="11.6553" x="0" y="0"/>
  <path d="M7.08496 9.46899L4.56543 9.46899L4.56543 6.24146C4.56543 6.01685 4.7168 5.87036 4.94141 5.87036L6.71387 5.87036C6.93848 5.87036 7.08496 6.01685 7.08496 6.24146ZM1.52344 9.17603C1.52344 9.85474 1.93359 10.2551 2.62207 10.2551L9.04297 10.2551C9.73145 10.2551 10.1367 9.85474 10.1367 9.17603L10.1367 5.30884L6.12305 1.94458C5.9375 1.78833 5.71777 1.79321 5.53711 1.94458L1.52344 5.30884ZM0 4.82056C0 5.02075 0.15625 5.21118 0.419922 5.21118C0.556641 5.21118 0.668945 5.13794 0.771484 5.05493L5.65918 0.953369C5.7666 0.855713 5.89844 0.855713 6.00586 0.953369L10.8936 5.05493C10.9912 5.13794 11.1035 5.21118 11.2402 5.21118C11.4697 5.21118 11.6553 5.06958 11.6553 4.83521C11.6553 4.68872 11.6064 4.59106 11.5039 4.50317L6.4209 0.230713C6.05957-0.0769043 5.61035-0.0769043 5.24414 0.230713L0.15625 4.50317C0.0488281 4.59106 0 4.70825 0 4.82056ZM8.91113 2.61841L10.1367 3.65356L10.1367 1.39771C10.1367 1.18286 10 1.04614 9.78516 1.04614L9.2627 1.04614C9.05273 1.04614 8.91113 1.18286 8.91113 1.39771Z" fill="#ffffff" fill-opacity="0.85"/>
 </g>
</svg>
