<svg width="2421" height="1364" viewBox="0 0 2421 1364" fill="none" xmlns="http://www.w3.org/2000/svg">
<path d="M17.4614 620.447L657.461 1241.05C659.404 1242.94 660.5 1245.53 660.5 1248.23V1354C660.5 1359.52 656.023 1364 650.5 1364H10.5C4.97715 1364 0.5 1359.52 0.5 1354V1244V627.626C0.5 618.791 11.1187 614.297 17.4614 620.447Z" fill="#64748B"/>
<path d="M2403.04 620.447L1763.04 1241.05C1761.1 1242.94 1760 1245.53 1760 1248.23V1354C1760 1359.52 1764.48 1364 1770 1364H2410C2415.52 1364 2420 1359.52 2420 1354V1244V627.626C2420 618.791 2409.38 614.297 2403.04 620.447Z" fill="#64748B"/>
<path d="M0 145.758V10C0 4.47715 4.47715 0 10 0H565.555C568.177 0 570.695 1.03027 572.565 2.86882L1203.49 623.108C1207.38 626.933 1213.62 626.933 1217.51 623.108L1848.43 2.86881C1850.3 1.03026 1852.82 0 1855.45 0H2411C2416.52 0 2421 4.47715 2421 10V145.758C2421 148.469 2419.9 151.064 2417.95 152.948L1217.45 1313.28C1213.57 1317.03 1207.43 1317.03 1203.55 1313.28L3.05027 152.948C1.10086 151.064 0 148.469 0 145.758Z" fill="#64748B"/>
</svg>
