<?xml version="1.0" encoding="UTF-8"?>
<!--Generator: Apple Native CoreSVG 175.5-->
<!DOCTYPE svg
PUBLIC "-//W3C//DTD SVG 1.1//EN"
       "http://www.w3.org/Graphics/SVG/1.1/DTD/svg11.dtd">
<svg version="1.1" xmlns="http://www.w3.org/2000/svg" xmlns:xlink="http://www.w3.org/1999/xlink" width="19.9219" height="19.9316">
 <g>
  <rect height="19.9316" opacity="0" width="19.9219" x="0" y="0"/>
  <path d="M9.96094 19.9219C15.4102 19.9219 19.9219 15.4004 19.9219 9.96094C19.9219 4.51172 15.4004 0 9.95117 0C4.51172 0 0 4.51172 0 9.96094C0 15.4004 4.52148 19.9219 9.96094 19.9219ZM9.96094 18.2617C5.35156 18.2617 1.66992 14.5703 1.66992 9.96094C1.66992 5.35156 5.3418 1.66016 9.95117 1.66016C14.5605 1.66016 18.2617 5.35156 18.2617 9.96094C18.2617 14.5703 14.5703 18.2617 9.96094 18.2617ZM16.6406 16.3965L16.6113 16.2891C16.1328 14.8535 13.5547 13.2812 9.96094 13.2812C6.37695 13.2812 3.79883 14.8535 3.31055 16.2793L3.28125 16.3965C5.03906 18.1348 8.05664 19.1504 9.96094 19.1504C11.875 19.1504 14.8633 18.1445 16.6406 16.3965ZM9.96094 11.6211C11.8457 11.6406 13.3105 10.0391 13.3105 7.93945C13.3105 5.9668 11.8359 4.33594 9.96094 4.33594C8.08594 4.33594 6.60156 5.9668 6.61133 7.93945C6.62109 10.0391 8.08594 11.6016 9.96094 11.6211Z" fill="#ffffff" fill-opacity="0.85"/>
 </g>
</svg>
